# xmcd CD database file
#
# Track frame offsets:
#	150
#	20250
#	43950
#	66900
#	87000
#	109125
#	119400
#	139650
#	162975
#	181650
#	201300
#
# Disc length: 2911 seconds
#
# Revision: 1
# Processed by: cddbd v1.5.1PL2 Copyright (c) Steve Scherf et al.
# Submitted via: freeDBTagger 0.8.2.1
#
DISCID=950b5d0b
DTITLE=HOUND DOG - 11 Rooms For Sky
DYEAR=2004
DGENRE=rock
TTITLE0=RICKY’S BARへようこそ
TTITLE1=空を見ろよ
TTITLE2=たったひとつの愛のうた
TTITLE3=こなごな
TTITLE4=泣くなよ
TTITLE5=新宿4:00 a.m.
TTITLE6=ROCK ON
TTITLE7=MILES AWAY
TTITLE8=ラブレタア
TTITLE9=DESPERADO
TTITLE10=Sky dogのテーマ
EXTD=
EXTT0=
EXTT1=
EXTT2=
EXTT3=
EXTT4=
EXTT5=
EXTT6=
EXTT7=
EXTT8=
EXTT9=
EXTT10=
PLAYORDER=
